{
  "accessors": [
    {
      "bufferView": 1,
      "componentType": 5126,
      "count": 190,
      "max": [
        1.554573893547058,
        0.0,
        0.7479538321495056
      ],
      "min": [
        -1.399099349975586,
        -0.20000000298023224,
        -0.5983631014823914
      ],
      "type": "VEC3"
    },
    {
      "bufferView": 1,
      "byteOffset": 2280,
      "componentType": 5126,
      "count": 190,
      "max": [
        1.0,
        1.0,
        1.0
      ],
      "min": [
        -1.0,
        -1.0,
        -1.0
      ],
      "type": "VEC3"
    },
    {
      "bufferView": 0,
      "componentType": 5125,
      "count": 426,
      "type": "SCALAR"
    },
    {
      "bufferView": 1,
      "byteOffset": 4560,
      "componentType": 5126,
      "count": 407,
      "max": [
        2.0566086769104004,
        5.205652713775635,
        0.6641621589660645
      ],
      "min": [
        -1.1886624097824097,
        0.0,
        -0.37224137783050537
      ],
      "type": "VEC3"
    },
    {
      "bufferView": 1,
      "byteOffset": 9444,
      "componentType": 5126,
      "count": 407,
      "max": [
        1.0,
        1.0,
        1.0
      ],
      "min": [
        -1.0,
        -1.0,
        -1.0
      ],
      "type": "VEC3"
    },
    {
      "bufferView": 0,
      "byteOffset": 1704,
      "componentType": 5125,
      "count": 870,
      "type": "SCALAR"
    },
    {
      "bufferView": 1,
      "byteOffset": 14328,
      "componentType": 5126,
      "count": 407,
      "max": [
        2.0566086769104004,
        5.205652713775635,
        0.6641621589660645
      ],
      "min": [
        -1.1886624097824097,
        0.0,
        -0.37224137783050537
      ],
      "type": "VEC3"
    },
    {
      "bufferView": 1,
      "byteOffset": 19212,
      "componentType": 5126,
      "count": 407,
      "max": [
        1.0,
        1.0,
        1.0
      ],
      "min": [
        -1.0,
        -1.0,
        -1.0
      ],
      "type": "VEC3"
    },
    {
      "bufferView": 0,
      "byteOffset": 5184,
      "componentType": 5125,
      "count": 870,
      "type": "SCALAR"
    },
    {
      "bufferView": 1,
      "byteOffset": 24096,
      "componentType": 5126,
      "count": 190,
      "max": [
        1.554573893547058,
        0.0,
        0.7479538321495056
      ],
      "min": [
        -1.399099349975586,
        -0.20000000298023224,
        -0.5983631014823914
      ],
      "type": "VEC3"
    },
    {
      "bufferView": 1,
      "byteOffset": 26376,
      "componentType": 5126,
      "count": 190,
      "max": [
        1.0,
        1.0,
        1.0
      ],
      "min": [
        -1.0,
        -1.0,
        -1.0
      ],
      "type": "VEC3"
    },
    {
      "bufferView": 0,
      "byteOffset": 8664,
      "componentType": 5125,
      "count": 426,
      "type": "SCALAR"
    },
    {
      "bufferView": 1,
      "byteOffset": 28656,
      "componentType": 5126,
      "count": 407,
      "max": [
        2.0566086769104004,
        5.205652713775635,
        0.6641621589660645
      ],
      "min": [
        -1.1886624097824097,
        0.0,
        -0.37224137783050537
      ],
      "type": "VEC3"
    },
    {
      "bufferView": 1,
      "byteOffset": 33540,
      "componentType": 5126,
      "count": 407,
      "max": [
        1.0,
        1.0,
        1.0
      ],
      "min": [
        -1.0,
        -1.0,
        -1.0
      ],
      "type": "VEC3"
    },
    {
      "bufferView": 0,
      "byteOffset": 10368,
      "componentType": 5125,
      "count": 870,
      "type": "SCALAR"
    },
    {
      "bufferView": 1,
      "byteOffset": 38424,
      "componentType": 5126,
      "count": 194,
      "max": [
        2.518373966217041,
        0.0,
        0.6731584668159485
      ],
      "min": [
        -1.9939931631088257,
        -0.20000000298023224,
        -0.6731584668159485
      ],
      "type": "VEC3"
    },
    {
      "bufferView": 1,
      "byteOffset": 40752,
      "componentType": 5126,
      "count": 194,
      "max": [
        1.0,
        1.0,
        1.0
      ],
      "min": [
        -1.0,
        -1.0,
        -1.0
      ],
      "type": "VEC3"
    },
    {
      "bufferView": 0,
      "byteOffset": 13848,
      "componentType": 5125,
      "count": 456,
      "type": "SCALAR"
    },
    {
      "bufferView": 1,
      "byteOffset": 43080,
      "componentType": 5126,
      "count": 1334,
      "max": [
        19.700199127197266,
        19.89204216003418,
        2.7021408081054688
      ],
      "min": [
        -16.322189331054688,
        -18.759342193603516,
        -2.779845714569092
      ],
      "type": "VEC3"
    },
    {
      "bufferView": 1,
      "byteOffset": 59088,
      "componentType": 5126,
      "count": 1334,
      "max": [
        1.0,
        1.0,
        1.0
      ],
      "min": [
        -1.0,
        -1.0,
        -1.0
      ],
      "type": "VEC3"
    },
    {
      "bufferView": 0,
      "byteOffset": 15672,
      "componentType": 5125,
      "count": 4152,
      "type": "SCALAR"
    },
    {
      "bufferView": 1,
      "byteOffset": 75096,
      "componentType": 5126,
      "count": 48,
      "max": [
        10.47291374206543,
        18.190921783447266,
        2.7021408081054688
      ],
      "min": [
        4.632019519805908,
        14.167474746704102,
        -2.779845714569092
      ],
      "type": "VEC3"
    },
    {
      "bufferView": 1,
      "byteOffset": 75672,
      "componentType": 5126,
      "count": 48,
      "max": [
        0.0,
        1.7169269028727285e-07,
        1.0
      ],
      "min": [
        0.0,
        0.0,
        -1.0
      ],
      "type": "VEC3"
    },
    {
      "bufferView": 0,
      "byteOffset": 32280,
      "componentType": 5125,
      "count": 96,
      "type": "SCALAR"
    }
  ],
  "asset": {
    "extras": {
      "author": "YuvalMarko (https://sketchfab.com/yusdho1)",
      "license": "CC-BY-4.0 (http://creativecommons.org/licenses/by/4.0/)",
      "source": "https://sketchfab.com/3d-models/the-unconnected-dinosaur-b95c21cd17f94ce994f11d77f8e0b38d",
      "title": "The UnConnected Dinosaur"
    },
    "generator": "Sketchfab-12.68.0",
    "version": "2.0"
  },
  "bufferViews": [
    {
      "buffer": 0,
      "byteLength": 32664,
      "name": "floatBufferViews",
      "target": 34963
    },
    {
      "buffer": 0,
      "byteLength": 76248,
      "byteOffset": 32664,
      "byteStride": 12,
      "name": "floatBufferViews",
      "target": 34962
    }
  ],
  "buffers": [
    {
      "byteLength": 108912,
      "uri": "scene.bin"
    }
  ],
  "materials": [
    {
      "doubleSided": true,
      "name": "white",
      "pbrMetallicRoughness": {
        "metallicFactor": 0.0,
        "roughnessFactor": 0.5
      }
    },
    {
      "doubleSided": true,
      "name": "black",
      "pbrMetallicRoughness": {
        "baseColorFactor": [
          0.173355,
          0.173355,
          0.173355,
          1.0
        ],
        "metallicFactor": 0.0,
        "roughnessFactor": 0.5
      }
    }
  ],
  "meshes": [
    {
      "name": "Object_0",
      "primitives": [
        {
          "attributes": {
            "NORMAL": 1,
            "POSITION": 0
          },
          "indices": 2,
          "material": 0,
          "mode": 4
        }
      ]
    },
    {
      "name": "Object_1",
      "primitives": [
        {
          "attributes": {
            "NORMAL": 4,
            "POSITION": 3
          },
          "indices": 5,
          "material": 1,
          "mode": 4
        }
      ]
    },
    {
      "name": "Object_2",
      "primitives": [
        {
          "attributes": {
            "NORMAL": 7,
            "POSITION": 6
          },
          "indices": 8,
          "material": 1,
          "mode": 4
        }
      ]
    },
    {
      "name": "Object_3",
      "primitives": [
        {
          "attributes": {
            "NORMAL": 10,
            "POSITION": 9
          },
          "indices": 11,
          "material": 0,
          "mode": 4
        }
      ]
    },
    {
      "name": "Object_4",
      "primitives": [
        {
          "attributes": {
            "NORMAL": 13,
            "POSITION": 12
          },
          "indices": 14,
          "material": 1,
          "mode": 4
        }
      ]
    },
    {
      "name": "Object_5",
      "primitives": [
        {
          "attributes": {
            "NORMAL": 16,
            "POSITION": 15
          },
          "indices": 17,
          "material": 0,
          "mode": 4
        }
      ]
    },
    {
      "name": "Object_6",
      "primitives": [
        {
          "attributes": {
            "NORMAL": 19,
            "POSITION": 18
          },
          "indices": 20,
          "material": 1,
          "mode": 4
        }
      ]
    },
    {
      "name": "Object_7",
      "primitives": [
        {
          "attributes": {
            "NORMAL": 22,
            "POSITION": 21
          },
          "indices": 23,
          "material": 0,
          "mode": 4
        }
      ]
    }
  ],
  "nodes": [
    {
      "children": [
        1
      ],
      "matrix": [
        0.022716697305440903,
        0.0,
        0.0,
        0.0,
        0.0,
        5.0441200783881485e-18,
        -0.022716697305440903,
        0.0,
        0.0,
        0.022716697305440903,
        5.0441200783881485e-18,
        0.0,
        0.0,
        0.0,
        0.0,
        1.0
      ],
      "name": "Sketchfab_model"
    },
    {
      "children": [
        2
      ],
      "name": "root"
    },
    {
      "children": [
        3,
        9,
        13
      ],
      "matrix": [
        1.0,
        0.0,
        0.0,
        0.0,
        0.0,
        2.220446049250313e-16,
        1.0,
        0.0,
        0.0,
        -1.0,
        2.220446049250313e-16,
        0.0,
        0.0,
        0.0,
        0.0,
        1.0
      ],
      "name": "GLTF_SceneRootNode"
    },
    {
      "children": [
        4,
        5,
        7
      ],
      "matrix": [
        1.0,
        0.0,
        0.0,
        0.0,
        0.0,
        1.0,
        0.0,
        0.0,
        0.0,
        0.0,
        1.0,
        0.0,
        6.5944390296936035,
        0.0,
        -0.07479541003704071,
        1.0
      ],
      "name": "Plane.002_2"
    },
    {
      "mesh": 0,
      "name": "Object_4"
    },
    {
      "children": [
        6
      ],
      "matrix": [
        0.3112644553130669,
        0.0,
        -1.8307706463459426e-06,
        0.0,
        0.0,
        0.31126445531845093,
        0.0,
        0.0,
        3.3840010523312637e-06,
        0.0,
        0.5753419995208404,
        0.0,
        -0.6051454544067383,
        0.0,
        0.22139455378055573,
        1.0
      ],
      "name": "Cube.002_0"
    },
    {
      "mesh": 1,
      "name": "Object_6"
    },
    {
      "children": [
        8
      ],
      "matrix": [
        -0.31126445531275754,
        0.0,
        1.8826373155784855e-06,
        0.0,
        0.0,
        0.38133493065834045,
        0.0,
        0.0,
        -3.479871533767133e-06,
        0.0,
        -0.5753419995202685,
        0.0,
        0.8708181381225586,
        0.0,
        -0.1180771142244339,
        1.0
      ],
      "name": "Cube.003_1"
    },
    {
      "mesh": 2,
      "name": "Object_8"
    },
    {
      "children": [
        10,
        11
      ],
      "matrix": [
        1.0,
        0.0,
        0.0,
        0.0,
        0.0,
        1.0,
        0.0,
        0.0,
        0.0,
        0.0,
        1.0,
        0.0,
        2.1507606506347656,
        0.0,
        -0.07479541003704071,
        1.0
      ],
      "name": "Plane.001_4"
    },
    {
      "mesh": 3,
      "name": "Object_10"
    },
    {
      "children": [
        12
      ],
      "matrix": [
        0.8313643336296082,
        0.0,
        0.0,
        0.0,
        0.0,
        0.8313643336296082,
        0.0,
        0.0,
        0.0,
        0.0,
        0.8313643336296082,
        0.0,
        0.0,
        0.0,
        0.0,
        1.0
      ],
      "name": "Cube.001_3"
    },
    {
      "mesh": 4,
      "name": "Object_12"
    },
    {
      "children": [
        14,
        15
      ],
      "matrix": [
        1.0,
        0.0,
        0.0,
        0.0,
        0.0,
        1.0,
        0.0,
        0.0,
        0.0,
        0.0,
        1.0,
        0.0,
        -2.970501184463501,
        0.0,
        0.0,
        1.0
      ],
      "name": "Plane_6"
    },
    {
      "mesh": 5,
      "name": "Object_14"
    },
    {
      "children": [
        16,
        17
      ],
      "matrix": [
        0.11200538277626038,
        0.0,
        0.0,
        0.0,
        0.0,
        0.11200538277626038,
        0.0,
        0.0,
        0.0,
        0.0,
        0.18772903084754944,
        0.0,
        0.0,
        2.104091167449951,
        0.0,
        1.0
      ],
      "name": "Cube_5"
    },
    {
      "mesh": 6,
      "name": "Object_16"
    },
    {
      "mesh": 7,
      "name": "Object_17"
    }
  ],
  "scene": 0,
  "scenes": [
    {
      "name": "Sketchfab_Scene",
      "nodes": [
        0
      ]
    }
  ]
}
