{
  "accessors": [
    {
      "bufferView": 1,
      "componentType": 5126,
      "count": 65532,
      "max": [
        12.007499694824219,
        4.300099849700928,
        12.005800247192383
      ],
      "min": [
        -12.006600379943848,
        -4.300099849700928,
        -12.006799697875977
      ],
      "type": "VEC3"
    },
    {
      "bufferView": 1,
      "byteOffset": 786384,
      "componentType": 5126,
      "count": 65532,
      "max": [
        0.9999992251396179,
        1.0,
        0.9999820590019226
      ],
      "min": [
        -0.9999777674674988,
        -1.0,
        -0.9999995827674866
      ],
      "type": "VEC3"
    },
    {
      "bufferView": 0,
      "componentType": 5125,
      "count": 340128,
      "type": "SCALAR"
    },
    {
      "bufferView": 1,
      "byteOffset": 1572768,
      "componentType": 5126,
      "count": 10013,
      "max": [
        12.007499694824219,
        3.3041999340057373,
        10.793899536132813
      ],
      "min": [
        -10.57859992980957,
        -3.3887999057769775,
        -12.002300262451172
      ],
      "type": "VEC3"
    },
    {
      "bufferView": 1,
      "byteOffset": 1692924,
      "componentType": 5126,
      "count": 10013,
      "max": [
        0.9998748302459717,
        0.99952232837677,
        0.9999257326126099
      ],
      "min": [
        -0.9994052052497864,
        -0.9998112320899963,
        -0.9999187588691711
      ],
      "type": "VEC3"
    },
    {
      "bufferView": 0,
      "byteOffset": 1360512,
      "componentType": 5125,
      "count": 31626,
      "type": "SCALAR"
    }
  ],
  "asset": {
    "extras": {
      "author": "thunk3d.scanner (https://sketchfab.com/thunk3d.scanner)",
      "license": "CC-BY-4.0 (http://creativecommons.org/licenses/by/4.0/)",
      "source": "https://sketchfab.com/3d-models/jewelry-ring-eb2ffec2249d44cab6477ee3482dca67",
      "title": "Jewelry Ring"
    },
    "generator": "Sketchfab-14.91.0",
    "version": "2.0"
  },
  "bufferViews": [
    {
      "buffer": 0,
      "byteLength": 1487016,
      "name": "floatBufferViews",
      "target": 34963
    },
    {
      "buffer": 0,
      "byteLength": 1813080,
      "byteOffset": 1487016,
      "byteStride": 12,
      "name": "floatBufferViews",
      "target": 34962
    }
  ],
  "buffers": [
    {
      "byteLength": 3300096,
      "uri": "scene.bin"
    }
  ],
  "materials": [
    {
      "doubleSided": true,
      "name": "Scene_-_Root",
      "pbrMetallicRoughness": {
        "metallicFactor": 0.0,
        "roughnessFactor": 0.6
      }
    }
  ],
  "meshes": [
    {
      "name": "Object_0",
      "primitives": [
        {
          "attributes": {
            "NORMAL": 1,
            "POSITION": 0
          },
          "indices": 2,
          "material": 0,
          "mode": 4
        }
      ]
    },
    {
      "name": "Object_1",
      "primitives": [
        {
          "attributes": {
            "NORMAL": 4,
            "POSITION": 3
          },
          "indices": 5,
          "material": 0,
          "mode": 4
        }
      ]
    }
  ],
  "nodes": [
    {
      "children": [
        1
      ],
      "matrix": [
        0.996172308921814,
        0.005768898874521275,
        -0.08722060918807983,
        0.0,
        -0.01920488476753235,
        0.987883448600769,
        -0.15400458872318246,
        0.0,
        0.08527535945177078,
        0.15509016811847665,
        0.9842129349708557,
        0.0,
        0.0,
        0.0,
        0.0,
        1.0
      ],
      "name": "Sketchfab_model"
    },
    {
      "children": [
        2,
        3
      ],
      "name": "M16_008r.stl.cleaner.materialmerger.gles"
    },
    {
      "mesh": 0,
      "name": "Object_2"
    },
    {
      "mesh": 1,
      "name": "Object_3"
    }
  ],
  "scene": 0,
  "scenes": [
    {
      "name": "Sketchfab_Scene",
      "nodes": [
        0
      ]
    }
  ]
}
